<svg width="242" height="154" viewBox="0 0 242 154" fill="none" xmlns="http://www.w3.org/2000/svg">
<path d="M58.8563 90.4907H53.4935V76.9792H49.8403V72.5801H53.4934V69.4499C53.4934 65.7405 55.1091 63.0802 60.4574 63.0802C61.5885 63.0802 63.3644 63.3106 63.3644 63.3106V67.3954H61.4991C59.5986 67.3954 58.8566 67.9797 58.8566 69.595V72.5801H63.2932L62.8981 76.9792H58.8564L58.8563 90.4907ZM71.1612 72.2286C71.0831 72.2286 71.0027 72.2315 70.9231 72.2335C65.9505 72.2335 63.6753 76.0139 63.6753 81.3803C63.6753 88.1405 66.6265 90.8462 70.962 90.8462C73.4424 90.8462 75.0721 89.7909 76.0627 87.8218V90.4926H81.1634V72.582H76.0627V75.3364C75.2539 73.5643 73.5786 72.2496 71.1612 72.2286ZM72.4582 76.4608C74.5467 76.4608 75.8003 77.9332 75.8003 80.4376L75.8051 82.9955C75.8051 84.6835 74.7697 86.6582 72.4582 86.6582C68.9044 86.6582 68.9994 82.78 68.9994 81.4883C68.9994 77.1433 70.8928 76.4608 72.4582 76.4608ZM83.2233 81.5382C83.2233 79.3618 83.1203 72.2402 92.3005 72.2402C95.9856 72.2402 97.5243 73.4245 97.5243 73.4245L96.2876 77.3014C96.2876 77.3014 94.7508 76.4461 92.7484 76.4461C90.1836 76.4461 88.5471 77.9488 88.5471 80.5928L88.5499 82.4886C88.5499 85.0291 90.129 86.725 92.7536 86.725C94.5779 86.725 96.2592 85.8616 96.2592 85.8616L97.4929 89.6576C97.4929 89.6576 96.0859 90.8493 92.3262 90.8493C83.5853 90.8493 83.2235 84.4599 83.2235 81.5382H83.2233ZM127.432 72.2335C132.405 72.2335 134.716 76.0139 134.716 81.3803C134.716 88.1405 131.764 90.8462 127.429 90.8462C124.948 90.8462 123.115 89.7911 122.124 87.8218V90.4926L117.088 90.4906V63.6248L122.435 63.1534V75.0938C123.207 73.0048 125.743 72.2335 127.432 72.2335H127.432ZM125.933 76.4608C123.844 76.4608 122.435 77.9332 122.435 80.4376L122.43 82.9955C122.427 84.6835 123.406 86.6582 125.933 86.6582C129.486 86.6582 129.391 82.78 129.391 81.4883C129.391 77.1433 127.498 76.4608 125.933 76.4608ZM106.803 72.2483C101.163 72.2483 98.185 75.3563 98.185 80.8794V81.9056C98.185 89.0742 102.366 90.9198 107.352 90.9198C112.197 90.9198 114.39 89.55 114.39 89.55L113.39 85.9022C113.39 85.9022 110.81 87.0117 107.993 87.0117C105.072 87.0117 103.816 86.2594 103.494 83.4228H114.818V80.4964C114.818 74.5052 111.476 72.2482 106.803 72.2482L106.803 72.2483ZM106.939 75.901C108.891 75.901 110.156 77.111 110.087 79.9172H103.504C103.618 76.9637 104.983 75.9011 106.939 75.9011V75.901ZM145.378 72.2237C139.586 72.2237 136.537 75.5225 136.537 81.4342C136.537 89.5454 141.793 90.851 145.388 90.851C150.65 90.851 154.151 87.9876 154.151 81.5079C154.151 74.7636 150.215 72.2237 145.378 72.2237V72.2237ZM145.305 76.4755C147.852 76.4755 148.861 78.4019 148.861 80.5948V82.4801C148.861 85.1365 147.449 86.6731 145.296 86.6731C143.282 86.6731 141.866 85.2358 141.866 82.4801V80.5948C141.866 77.6558 143.55 76.4755 145.305 76.4755V76.4755ZM164.805 72.2237C159.013 72.2237 155.963 75.5225 155.963 81.4342C155.963 89.5454 161.22 90.851 164.814 90.851C170.076 90.851 173.578 87.9876 173.578 81.5079C173.578 74.7636 169.641 72.2237 164.805 72.2237V72.2237ZM164.732 76.4755C167.278 76.4755 168.288 78.4019 168.288 80.5948V82.4801C168.288 85.1365 166.875 86.6731 164.722 86.6731C162.708 86.6731 161.292 85.2358 161.292 82.4801V80.5948C161.292 77.6558 162.977 76.4755 164.732 76.4755V76.4755ZM175.598 90.4907V63.6248L180.962 63.1534V81.1607L186.282 72.5801H191.946L186.396 81.467L192.16 90.4907H186.48L180.962 81.7288V90.4907H175.598Z" fill="#0084FF"/>
</svg>
