<svg width="242" height="154" viewBox="0 0 242 154" fill="none" xmlns="http://www.w3.org/2000/svg">
<path d="M63.3298 59.261C61.4284 59.4764 58.5762 60.371 56.9534 61.2656C52.5932 63.6347 49.6427 67.3291 48.1674 72.2495C47.8723 73.2103 47.5281 75.8279 47.5445 77.0539C47.5445 78.1307 47.8723 80.7648 48.069 81.3944C48.1674 81.6926 48.3805 82.405 48.5608 82.9517C48.8559 83.8794 50.2819 86.7952 50.5278 86.994C50.577 87.0437 50.8393 87.375 51.0851 87.7561C51.6916 88.6673 53.2816 90.2908 54.4782 91.2186C55.3962 91.9309 57.9861 93.4385 58.3139 93.4551C58.3959 93.4551 58.4123 92.8255 58.3631 91.9972C58.2484 90.1583 58.5926 87.6567 59.3302 85.1054C59.4614 84.6746 59.5597 84.1114 59.5597 83.8628C59.5597 83.6143 59.6253 83.3493 59.7072 83.2664C59.7892 83.167 59.9367 82.6866 60.0187 82.1896C60.117 81.6926 60.2809 80.9305 60.3957 80.4998C60.5596 79.8537 60.5432 79.6052 60.3137 78.9093C59.9859 77.8491 59.9695 76.1261 60.2973 75.2978C61.0678 73.3263 61.9201 72.5808 63.3626 72.5808C65.1001 72.5808 65.9361 73.9061 65.6083 76.1261C65.4608 77.1367 65.051 78.7271 64.7887 79.2241C64.7231 79.3732 64.6084 79.7874 64.5592 80.1353C64.4936 80.4998 64.3625 81.0133 64.2806 81.295C64.0511 81.9411 64.4936 83.2002 65.0838 83.6806C65.6411 84.1279 66.8049 84.2605 67.8704 84.012C68.6244 83.8463 68.9358 83.6475 69.7226 82.8854C70.657 81.9577 71.3618 80.8808 71.3618 80.3672C71.3618 80.2181 71.4438 80.0193 71.5421 79.9199C72.0011 79.4561 72.247 75.8445 71.9027 74.3203C71.5257 72.6471 70.3619 71.0069 68.8539 70.0461C67.3458 69.0686 64.2314 68.787 62.3135 69.4496C60.9694 69.9135 59.7728 70.6922 59.0024 71.6033C58.3139 72.4151 57.5927 73.7405 57.5927 74.2043C57.5927 74.37 57.5107 74.5854 57.4124 74.6848C57.314 74.7842 57.1993 75.4137 57.1501 76.093C57.0682 77.1036 57.1337 77.5674 57.4288 78.5614C57.6255 79.2407 57.9861 80.0359 58.1992 80.3341C58.6418 80.9305 58.6418 81.1624 58.232 82.7529C58.1172 83.1836 57.9205 83.5812 57.8058 83.6309C56.7731 84.0285 54.6749 81.5269 53.9701 79.0419C53.7078 78.0976 53.6914 74.7345 53.9537 73.7405C54.0685 73.3263 54.2652 72.763 54.3963 72.4648C54.5274 72.1832 54.6422 71.9015 54.6422 71.8353C54.6422 71.769 54.97 71.2057 55.3798 70.5928C57.5107 67.3456 60.9694 65.6227 65.346 65.6227C66.3459 65.6227 67.3786 65.689 67.6573 65.7718C69.9193 66.4842 70.5258 66.7161 71.411 67.2462C73.1321 68.29 74.3779 69.7147 75.6237 72.1003C75.7056 72.2495 75.8204 72.6471 75.8696 72.9784C75.9351 73.3097 76.0499 73.6245 76.1318 73.6742C76.2138 73.7239 76.2794 74.8008 76.2794 76.0764C76.2794 78.3792 76.1154 79.307 75.427 81.1956C74.6566 83.2664 72.6732 85.5527 70.8701 86.4473C69.8374 86.9443 67.9031 87.491 67.1327 87.491C66.1 87.491 64.0675 86.6295 63.5101 85.9337C63.2479 85.6189 63.002 85.7349 63.002 86.1822C63.002 86.3479 62.9364 86.6295 62.8381 86.7952C62.7561 86.9443 62.6086 87.4082 62.5266 87.8223C62.0513 90.0092 61.3792 91.7818 60.3465 93.4385C60.0351 93.9521 60.2973 94.2503 61.1497 94.3663C61.5759 94.4325 62.1496 94.5485 62.4119 94.6313C63.0676 94.8467 66.6246 94.8136 67.8212 94.5982C68.903 94.3994 70.657 93.9024 71.4438 93.5711C76.3941 91.5168 80.1478 87.3419 81.7706 82.0239C82.6394 79.191 82.6886 75.8942 81.9018 72.5808C81.6395 71.5039 81.5575 71.2554 80.8527 69.5987C79.8364 67.18 77.5415 64.347 75.2139 62.6075C73.2141 61.1165 71.2471 60.255 68.1818 59.5095C67.3294 59.3107 64.2969 59.145 63.3298 59.261ZM107.047 65.2417C106.408 65.3411 105.391 66.4013 105.129 67.2297C104.85 68.1409 105.129 69.1183 105.916 69.8804C107.653 71.5868 110.669 69.9798 110.292 67.5279C110.063 65.9706 108.653 64.9766 107.047 65.2417ZM89.1797 66.2191C89.0322 66.3848 89.0322 86.3645 89.1961 86.5964C89.2781 86.7289 89.9829 86.7786 91.3598 86.7621L93.4088 86.7455L93.4908 83.3824C93.5563 80.6489 93.6219 79.9862 93.8186 79.8702C93.9497 79.7874 95.0644 79.7046 96.2938 79.7046C98.982 79.7046 100.113 79.5058 101.342 78.8431C102.949 77.965 103.883 76.7059 104.391 74.7014C104.703 73.4423 104.703 72.5311 104.375 71.2389C104.08 70.0792 103.949 69.7976 103.244 68.8532C102.375 67.677 101.49 67.0309 100.047 66.5173C99.2443 66.2522 98.5722 66.2025 94.2284 66.1528C91.5238 66.1197 89.2453 66.1528 89.1797 66.2191ZM98.1788 70.3443C99.2771 70.6922 99.818 71.1892 100.064 72.0838C100.375 73.26 100.146 74.3534 99.4574 75.0161C98.7034 75.7285 98.0313 75.8942 95.8348 75.8942C94.3923 75.8942 93.9497 75.8445 93.753 75.6291C93.5399 75.4303 93.4908 74.9499 93.4908 73.0612C93.4908 70.0792 93.4744 70.0958 95.7528 70.0958C96.7363 70.0958 97.6871 70.1952 98.1788 70.3443ZM126.93 69.3668C126.93 70.5099 126.848 71.5868 126.766 71.769C126.651 71.9844 126.422 72.0838 126.029 72.0838C125.733 72.0838 125.455 72.1501 125.422 72.2495C125.406 72.3323 125.406 72.9121 125.455 73.5251C125.537 74.6185 125.553 74.6351 126.045 74.7511C126.324 74.8008 126.635 74.9002 126.733 74.9664C126.881 75.0493 126.93 76.358 126.93 79.6714C126.93 84.1279 126.946 84.2936 127.307 84.9563C128.061 86.3645 129.241 86.8615 131.635 86.7952L133.241 86.7455L133.29 85.1385L133.339 83.5149H132.929C132.307 83.5149 131.389 83.0179 131.29 82.6203C131.241 82.4215 131.192 80.6654 131.192 78.694C131.192 75.977 131.241 75.0658 131.405 74.9333C131.52 74.8339 131.979 74.7345 132.421 74.7014L133.241 74.6517V72.1666L132.339 72.1169C131.848 72.0838 131.389 71.9678 131.323 71.8684C131.258 71.7524 131.192 70.6756 131.192 69.4662V67.2794H126.93V69.3668ZM187.858 67.3788C187.793 67.4451 187.744 68.4888 187.744 69.6981C187.744 72.0506 187.727 72.0838 186.826 72.0838C186.416 72.0838 186.416 72.1003 186.465 73.3594C186.514 74.6185 186.531 74.6517 186.957 74.7014C187.186 74.7345 187.465 74.8505 187.547 74.9499C187.645 75.0658 187.744 77.0704 187.793 79.6217C187.842 82.0736 187.924 84.3102 187.99 84.5752C188.186 85.3042 189.203 86.2319 190.17 86.5467C191.252 86.9112 194.005 86.9443 194.284 86.5964C194.415 86.4473 194.464 85.8509 194.432 84.9894L194.382 83.5978L193.809 83.4984C193.186 83.399 192.481 83.0676 192.301 82.786C192.235 82.6866 192.17 80.8808 192.17 78.7768C192.17 74.4528 192.071 74.7345 193.497 74.7345C194.432 74.7345 194.514 74.5688 194.432 73.0612L194.382 72.1666L193.317 72.0838L192.251 72.0009L192.17 69.6816L192.088 67.3622L190.022 67.3125C188.891 67.2959 187.924 67.3291 187.858 67.3788ZM118.816 71.6862C118.013 71.9015 117.079 72.4483 116.456 73.0944C115.702 73.8896 115.505 73.8399 115.423 72.8293L115.374 72.1666H111.276V86.7455L113.341 86.7786C115.374 86.8283 115.423 86.8118 115.521 86.4473C115.571 86.2485 115.62 84.1445 115.62 81.7589C115.62 77.0373 115.636 76.9047 116.603 75.977C117.029 75.5628 117.259 75.48 118.177 75.4303L119.242 75.364L119.882 76.0433C120.636 76.8385 120.554 76.0764 120.619 82.9351C120.636 84.7575 120.652 86.3644 120.668 86.5301C120.701 86.7621 120.963 86.7952 122.799 86.7621L124.881 86.7455V75.1155L124.406 74.1712C123.586 72.5311 122.324 71.7524 120.39 71.653C119.701 71.6365 118.996 71.6365 118.816 71.6862ZM139.306 71.6862C137.536 72.1666 136.683 72.6471 135.585 73.7405C134.11 75.2481 133.438 77.0042 133.438 79.3732C133.454 83.5315 136.028 86.613 139.83 86.9774C143.076 87.2922 145.584 86.3313 147.19 84.1611C147.42 83.8463 147.912 82.8357 147.912 82.6535C147.912 82.5872 146.961 82.5209 145.813 82.5209H143.715L143.224 83.0345C142.65 83.6309 141.847 84.012 141.109 84.012C140.371 84.012 139.24 83.4818 138.716 82.9185C138.322 82.4712 137.749 81.179 137.749 80.7317C137.749 80.5826 138.945 80.5329 142.797 80.5329C145.568 80.5329 147.912 80.4666 148.026 80.4004C148.272 80.2347 148.043 77.6006 147.682 76.6397C146.944 74.6351 145.551 72.9453 144.141 72.3489C143.732 72.1832 143.256 71.9678 143.092 71.885C142.748 71.7027 139.83 71.5536 139.306 71.6862ZM142.502 75.3143C143.142 75.7616 143.699 76.8219 143.617 77.4183C143.568 77.7994 143.535 77.7994 140.765 77.8491C137.568 77.8988 137.552 77.8822 138.06 76.6894C138.421 75.861 139.142 75.1155 139.814 74.9002C140.584 74.6517 141.83 74.8505 142.502 75.3143ZM163.566 71.6862C161.664 72.1998 160.337 73.0447 159.304 74.3534C158.894 74.8836 158.566 75.3806 158.566 75.48C158.566 75.5628 158.452 75.861 158.304 76.1427C158.156 76.4077 157.943 77.2361 157.829 77.9816C157.255 81.5269 158.829 84.8403 161.779 86.3313L162.91 86.9112H165.287C167.746 86.9112 167.959 86.8615 169.467 86.0497C170.565 85.4533 172.368 83.1339 172.09 82.67C172.024 82.5872 171.09 82.5209 169.991 82.5209H167.975L167.565 83.0014C165.926 84.8734 162.861 83.9125 162.205 81.3115C162.107 80.9636 162.107 80.6654 162.189 80.5992C162.271 80.5495 164.615 80.5163 167.418 80.5329C171.417 80.5329 172.499 80.4998 172.516 80.3341C172.663 78.2632 171.68 75.1984 170.45 73.873C169.762 73.1275 168.565 72.2992 167.975 72.15C167.713 72.0838 167.418 71.9678 167.303 71.885C167.074 71.7027 164.074 71.5536 163.566 71.6862ZM166.123 74.9167C166.861 75.1818 167.713 76.1095 167.844 76.8219C168.041 77.8988 168.057 77.8988 165.008 77.8491C162.271 77.7994 162.254 77.7994 162.205 77.4183C162.14 76.9544 162.713 75.8113 163.205 75.3806C163.91 74.7842 165.139 74.5854 166.123 74.9167ZM177.827 71.6862C174.466 72.498 173.253 73.7073 173.237 76.2255C173.237 78.9425 174.581 80.0856 178.564 80.798C181.302 81.2784 182.089 81.7092 182.056 82.7529C182.039 83.4984 181.531 83.9788 180.515 84.1942C179.236 84.4758 178.236 84.1611 177.433 83.2499L176.794 82.5209H174.811C173.204 82.5209 172.827 82.5706 172.827 82.7529C172.827 83.2333 173.483 84.4924 174.024 85.1219C174.532 85.6686 174.925 85.9337 176.466 86.6792C176.614 86.7621 177.417 86.8946 178.22 86.994C179.712 87.1762 182.302 87.0106 182.957 86.6792C183.105 86.613 183.531 86.3976 183.892 86.2319C184.826 85.7846 185.711 84.774 186.039 83.8131C186.4 82.7197 186.301 81.1956 185.793 80.1353C185.187 78.8928 183.58 77.9982 181.187 77.5674C178.105 77.0207 178.056 77.0042 177.564 76.5237C176.974 75.9107 176.974 75.6954 177.564 75.0327C178.04 74.5025 178.073 74.486 179.384 74.486C180.695 74.486 180.728 74.5025 181.203 75.0327C181.466 75.3309 181.679 75.6788 181.679 75.8113C181.679 76.0101 182.023 76.0598 183.728 76.0598C185.99 76.0598 185.924 76.1095 185.531 74.9333C184.81 72.8459 182.957 71.7856 179.876 71.6696C178.925 71.6365 178.007 71.6365 177.827 71.6862ZM156.026 72.0341C155.304 72.2826 154.304 73.1109 153.993 73.7073C153.682 74.3037 153.403 74.0552 153.321 73.0612L153.239 72.1666H149.141L149.092 79.1247C149.075 82.9517 149.092 86.2485 149.141 86.4639C149.223 86.8283 149.272 86.8283 151.239 86.7952C152.37 86.7786 153.288 86.6792 153.354 86.5798C153.419 86.497 153.485 84.7409 153.485 82.6866C153.485 79.4395 153.518 78.8596 153.796 78.1307C154.37 76.6231 155.599 75.7285 157.14 75.7285C157.566 75.7285 157.747 75.6457 157.796 75.4303C157.911 74.9499 157.927 72.7133 157.829 72.2163C157.73 71.8187 157.648 71.7524 157.206 71.769C156.911 71.7856 156.386 71.9015 156.026 72.0341ZM105.539 72.2826C105.49 72.3986 105.473 75.6622 105.49 79.5389L105.539 86.5798L107.489 86.6627C108.67 86.7124 109.522 86.6792 109.653 86.5798C109.833 86.4473 109.883 85.0391 109.883 79.4064C109.899 75.5628 109.85 72.3323 109.801 72.2495C109.637 72.0009 105.621 72.0341 105.539 72.2826Z" fill="#D71818"/>
</svg>
