<svg width="242" height="154" viewBox="0 0 242 154" fill="none" xmlns="http://www.w3.org/2000/svg">
<path d="M172.454 65.1259H167.507V58.1993H156.643L151.647 65.1259H142.769L139.801 68.0944V65.1259H132.874V58.1993H111.105V65.1259H80.4797L75.4827 58.1993H64.5981V81.9475L78.4512 95.8006H92.3043V91.8426L96.2624 95.8006H122.979V91.8426L126.937 95.8006H139.801V91.8426L143.759 95.8006H168.496L177.402 86.8951V70.0734L172.454 65.1259ZM81.4198 75.021H74.4932V77H81.4198V84.916H70.5352L66.5772 80.958V60.1784H74.4932V67.1049H81.4198V75.021ZM111.105 84.916H87.3568L83.3988 80.958V67.1049H91.3148V77H93.2939V67.1049H101.21V77H103.189V67.1049H111.105V84.916ZM121 84.916H113.084V67.1049H121V84.916ZM121 65.1259H113.084V60.1784H121V65.1259ZM137.822 75.021H130.895V77H137.822V84.916H126.937L122.979 80.958V60.1784H130.895V67.1049H137.822V75.021ZM155.633 75.021H147.717V77H155.633V84.916H143.759L139.801 80.958V71.0629L143.759 67.1049H155.633V75.021ZM175.423 84.916H167.507V75.021H165.528V84.916H157.612V60.1784H165.528V67.1049H171.465L175.423 71.0629V84.916Z" fill="#9146FF"/>
</svg>
