<svg width="242" height="154" viewBox="0 0 242 154" fill="none" xmlns="http://www.w3.org/2000/svg">
<path d="M96.1383 73.1531C96.1383 70.6348 93.6895 67.9602 89.4518 67.9602C84.693 67.9602 79.4654 71.451 78.6665 78.4155C77.8502 85.4493 82.2268 88.5755 86.6382 88.5755C91.0496 88.5755 93.3595 86.8561 95.7215 84.5636C93.6895 82.0106 91.0669 83.1915 90.5633 83.4521C90.0075 83.7299 89.2955 84.112 87.8366 84.112C86.1345 84.112 84.3978 83.3479 84.3978 80.1696C95.3046 79.0928 96.1383 75.6714 96.1383 73.1531ZM90.737 73.5699C90.6675 74.3514 90.3549 75.6887 84.832 76.4355C85.9956 72.3021 88.2187 71.9894 89.2434 71.9894C90.1986 71.9894 90.8064 72.7362 90.737 73.5699ZM72.2578 74.2472C72.2578 74.2472 69.9132 81.6111 69.7222 82.219C69.6527 81.5937 67.9333 68.377 67.9333 68.377C63.9387 68.377 61.8025 71.2253 60.6736 74.2299C60.6736 74.2299 57.8254 81.6111 57.5822 82.2363C57.5648 81.6632 57.148 74.3167 57.148 74.3167C56.9049 70.6348 53.5356 68.3943 50.8088 68.3943L54.1087 88.4192C58.2943 88.4018 60.5521 85.5709 61.7331 82.5663C61.7331 82.5663 64.2514 76.0535 64.3556 75.7582C64.3729 76.0361 66.1618 88.4192 66.1618 88.4192C70.3648 88.4192 72.6226 85.762 73.8383 82.8616L79.7259 68.3943C75.575 68.3943 73.3867 71.2253 72.2578 74.2472ZM111.561 67.9254C108.973 67.9254 106.993 69.3322 105.326 71.3989V71.3816L106.819 59.3458C103.381 59.3458 100.584 62.3331 100.046 66.7792L97.4409 88.2629C99.4208 88.2629 101.522 87.6898 102.651 86.2309C103.658 87.5335 105.169 88.5755 107.41 88.5755C113.211 88.5755 117.188 81.8369 117.188 75.5151C117.153 69.749 114.357 67.9254 111.561 67.9254ZM111.022 78.2591C110.414 81.7848 108.452 84.1815 106.559 84.1815C104.648 84.1815 103.832 83.3305 103.832 83.3305C104.197 80.2391 104.423 78.346 105.117 76.7134C105.812 75.0809 107.462 72.4757 109.181 72.4757C110.866 72.4757 111.63 74.7162 111.022 78.2591ZM131.672 68.3943H127.626L127.643 68.1859C127.921 65.5461 128.546 64.1567 130.613 63.9309C132.02 63.7919 132.645 63.0625 132.801 62.2636C132.923 61.6383 133.305 59.4674 133.305 59.4674C125.177 59.4153 122.624 62.9236 121.964 68.2728L121.947 68.3943H121.86C120.54 68.3943 119.081 69.888 118.838 71.781L118.751 72.4757H121.46L119.185 91.2675L118.49 94.6368C118.577 94.6368 118.681 94.6542 118.768 94.6542C122.572 94.5152 125.003 91.5106 125.542 87.1514L127.313 72.4757H128.581C129.831 72.4757 131.29 71.2253 131.551 69.1412L131.672 68.3943ZM152.722 68.047C148.05 68.047 143.639 71.4858 142.284 76.8871C140.929 82.2884 142.979 88.6797 149.856 88.6797C156.716 88.6797 160.676 82.0279 160.676 76.4877C160.676 70.9821 156.942 68.047 152.722 68.047ZM154.615 78.0855C154.372 80.5343 153.295 84.251 150.343 84.251C147.373 84.251 147.79 79.9091 148.085 77.8423C148.397 75.6366 149.631 72.4931 152.288 72.4931C154.667 72.4931 154.893 75.324 154.615 78.0855ZM183.758 74.2472C183.758 74.2472 181.413 81.6111 181.222 82.219C181.153 81.5937 179.433 68.377 179.433 68.377C175.439 68.377 173.303 71.2253 172.174 74.2299C172.174 74.2299 169.325 81.6111 169.082 82.2363C169.065 81.6632 168.648 74.3167 168.648 74.3167C168.405 70.6348 165.036 68.3943 162.309 68.3943L165.591 88.4192C169.777 88.4018 172.035 85.5709 173.216 82.5663C173.216 82.5663 175.734 76.0535 175.821 75.7582C175.856 76.0361 177.627 88.4192 177.627 88.4192C181.83 88.4192 184.088 85.762 185.304 82.8616L191.191 68.3943C187.058 68.3943 184.869 71.2253 183.758 74.2472ZM135.493 59.4674L132.089 86.9256L131.395 90.3123C131.481 90.3123 131.586 90.3296 131.672 90.3296C135.337 90.2775 137.942 87.0645 138.428 83.0179L140.391 67.2655C140.981 62.4546 138.116 59.4674 135.493 59.4674Z" fill="#4353FF"/>
</svg>
