<svg width="242" height="154" viewBox="0 0 242 154" fill="none" xmlns="http://www.w3.org/2000/svg">
<path d="M77.3342 91.5942L68.7468 91.4354C65.9663 91.3802 63.179 91.4906 60.4531 90.9175C56.3063 90.0614 56.0125 85.8634 55.7051 82.342C55.2815 77.3914 55.4455 72.351 56.2448 67.4418C56.6957 64.6868 58.4719 63.0435 61.2183 62.864C70.4889 62.215 79.821 62.2909 89.0711 62.5947C90.048 62.6223 91.0318 62.7742 91.9951 62.9468C96.7499 63.7892 96.8661 68.5465 97.1735 72.5512C97.4809 76.5973 97.3511 80.6642 96.7636 84.6827C96.2922 88.0107 95.3904 90.8002 91.5852 91.0695C86.8166 91.4216 82.1574 91.7047 77.3752 91.6149C77.3752 91.5942 77.3479 91.5942 77.3342 91.5942V91.5942ZM72.2856 83.1705C75.8791 81.0853 79.4042 79.0347 82.9772 76.9633C79.3769 74.8781 75.8586 72.8274 72.2856 70.756V83.1705Z" fill="#FF0000"/>
<path d="M166.053 87.8106C165.889 88.4872 165.746 89.0189 165.602 89.5851H162.241V63.3817H166.162V73.0483C166.367 72.7859 166.47 72.6755 166.558 72.5581C167.228 71.6259 168.096 71.0183 169.216 70.7836C170.999 70.4314 172.523 71.2255 173.062 72.9585C173.411 74.0357 173.636 75.1888 173.663 76.3142C173.718 79.2073 173.677 82.0935 173.575 84.9866C173.534 85.8704 173.267 86.7749 172.932 87.6034C171.833 90.3377 168.239 90.752 166.456 88.3837C166.347 88.2387 166.244 88.0799 166.053 87.8106V87.8106ZM166.244 80.6021V85.3939C166.244 86.1742 166.654 86.6506 167.426 86.8301C168.184 87.0096 168.799 86.7127 169.107 86.0015C169.237 85.7046 169.366 85.3939 169.373 85.0832C169.448 82.1556 169.517 79.228 169.537 76.2935C169.537 75.7481 169.407 75.1819 169.243 74.6502C168.936 73.6904 168.089 73.4074 167.255 73.9666C166.627 74.3947 166.244 75.0023 166.244 75.8102V80.6021ZM155.587 71.1564H159.693V89.5989H156.489C156.372 88.9015 156.256 88.1834 156.12 87.3411C155.901 87.6656 155.771 87.8727 155.635 88.0799C154.569 89.6334 153.059 90.1651 151.276 89.882C149.753 89.6334 148.837 88.4458 148.632 86.4987C148.571 85.9187 148.543 85.3318 148.543 84.7518C148.53 80.4364 148.543 76.1071 148.543 71.7917V71.1426H152.697V71.8952C152.697 76.0657 152.683 80.2292 152.711 84.3997C152.711 84.9935 152.772 85.608 152.875 86.2018C152.991 86.8094 153.428 87.0304 154.016 86.9889C154.965 86.913 155.621 86.2018 155.621 85.2489V71.9712C155.587 71.7019 155.587 71.4533 155.587 71.1564V71.1564ZM127.317 71.1426H131.444V71.9228C131.444 76.0726 131.43 80.2154 131.457 84.3513C131.457 84.9451 131.512 85.5596 131.635 86.1396C131.792 86.8232 132.188 87.0442 132.865 86.9544C133.801 86.8232 134.368 86.1673 134.374 85.2075V71.9988V71.1702H138.48V89.5989H135.29C135.174 88.9153 135.058 88.2111 134.907 87.3203C134.702 87.6311 134.586 87.8106 134.47 87.997C133.404 89.5782 131.908 90.1582 130.084 89.8751C128.622 89.6541 127.727 88.5632 127.454 86.7749C127.379 86.2156 127.324 85.6632 127.324 85.1039C127.31 80.6228 127.31 76.1209 127.31 71.6397L127.317 71.1426ZM125.199 80.9887C125.186 81.6102 125.145 82.2316 125.111 82.853C124.954 84.7173 124.878 87.3618 123.389 88.722C122.439 89.5782 121.237 89.8889 119.994 89.9303C119.44 89.9441 118.88 89.9441 118.327 89.8682C115.71 89.4677 114.494 88.3008 114.057 85.3939C113.558 82.0382 113.517 78.6273 114.112 75.2716C114.727 71.7986 116.844 70.5695 120.137 70.7974C123.211 71.0183 124.585 73.0552 124.947 75.9552C125.145 77.6192 125.24 79.304 125.199 80.9887V80.9887ZM121.018 80.3535C121.018 79.1728 121.046 77.9852 121.005 76.8045C120.978 76.1209 120.889 75.4304 120.745 74.7538C120.581 73.9735 120.089 73.6007 119.475 73.6145C118.873 73.6283 118.45 74.0012 118.231 74.7262C118.156 74.9954 118.074 75.2716 118.074 75.5409C118.074 77.3914 118.06 79.2487 118.047 81.0992C118.033 82.8254 117.814 84.6344 118.354 86.2846C118.518 86.7887 118.942 87.0649 119.495 87.0649C120.035 87.0649 120.39 86.7956 120.588 86.3123C120.745 85.9394 120.882 85.532 120.882 85.1316C120.93 83.5435 121.018 81.9485 121.018 80.3535ZM108.031 76.8804C108.394 75.0921 108.735 73.3452 109.111 71.5914C109.582 69.3612 110.108 67.131 110.573 64.8938C110.689 64.3484 110.908 64.2172 111.42 64.231C112.52 64.2724 113.64 64.2448 114.815 64.2448C114.433 65.6672 114.057 67.0205 113.688 68.3531C112.52 72.5374 111.352 76.7354 110.197 80.9335C110.108 81.258 110.067 81.6102 110.067 81.9554C110.054 84.2478 110.067 86.5332 110.067 88.8256V89.5713H106.057C106.043 89.3641 106.016 89.157 106.016 88.9499C106.016 87.6518 105.914 86.3468 106.03 85.0625C106.324 81.9761 105.353 79.1383 104.568 76.2659C103.529 72.4683 102.477 68.6569 101.439 64.8593C101.384 64.6798 101.364 64.4865 101.309 64.2655H105.401C106.262 68.4567 107.13 72.6478 108.031 76.8804ZM186.493 81.693H179.58C179.655 83.0947 179.682 84.4273 179.826 85.7461C179.928 86.6644 180.427 87.058 181.212 87.0649C182.032 87.0787 182.51 86.6644 182.702 85.753C182.763 85.4561 182.804 85.1592 182.832 84.8554C182.859 84.5861 182.873 84.2961 182.893 83.9094C184.061 83.9716 185.202 84.0406 186.329 84.0889C186.985 86.0568 185.803 88.5839 183.815 89.3641C182.251 89.9856 180.645 89.9856 179.047 89.5091C177.865 89.157 176.984 88.3975 176.587 87.2306C176.218 86.1396 175.87 85.0004 175.795 83.8611C175.59 81.0509 175.515 78.213 175.938 75.3959C176.014 74.9264 176.143 74.4776 176.287 74.0219C176.861 72.1438 178.111 70.9907 180.044 70.7974C181.096 70.6938 182.183 70.7352 183.221 70.9148C184.902 71.2117 185.797 72.4338 186.186 74.0357C186.364 74.7883 186.493 75.5616 186.521 76.328C186.528 78.0887 186.493 79.8356 186.493 81.693ZM182.565 79.2695C182.565 77.8816 182.579 76.5766 182.551 75.2647C182.551 74.954 182.435 74.6295 182.319 74.3326C182.087 73.7526 181.602 73.5938 181.021 73.5938C180.44 73.5938 180.072 73.8907 179.928 74.4223C179.491 76.0173 179.634 77.6468 179.648 79.2833C180.693 79.2695 181.643 79.2695 182.565 79.2695V79.2695Z" fill="#282828"/>
<path d="M141.65 67.6284H137.585V64.3003H149.718V67.6077H145.68V89.5716H141.657L141.65 67.6284Z" fill="#282828"/>
</svg>
