<svg width="242" height="154" viewBox="0 0 242 154" fill="none" xmlns="http://www.w3.org/2000/svg">
<path d="M77.1852 57.8206H78.2191C81.8087 57.8994 85.3398 59.3585 87.8759 61.9414C86.9395 62.9076 85.9836 63.8343 85.0667 64.8004C83.6425 63.4991 81.9258 62.4935 80.0529 62.1386C77.2827 61.5471 74.2979 62.0795 71.9764 63.6766C69.4402 65.3525 67.7235 68.1918 67.3528 71.2282C66.9431 74.2252 67.782 77.38 69.7133 79.7066C71.5667 81.9741 74.3954 83.3937 77.3217 83.4923C80.0529 83.6501 82.9012 82.8022 84.8911 80.8699C86.4518 79.5094 87.1736 77.4391 87.4077 75.428C84.1693 75.428 80.9308 75.4477 77.6924 75.428V71.3663H91.329C92.0313 75.7237 91.0168 80.6333 87.7394 83.7486C85.5544 85.957 82.5306 87.2583 79.4482 87.5146C76.4634 87.8104 73.381 87.2386 70.7278 85.7795C67.5479 84.0641 65.0118 81.1657 63.7632 77.7546C62.5927 74.6196 62.5732 71.0705 63.6657 67.9157C64.6606 65.037 66.5725 62.4935 69.0305 60.719C71.3911 58.9642 74.2589 57.998 77.1852 57.8206Z" fill="#4285F4"/>
<path d="M155.415 58.8459H159.59V87.002C158.205 87.002 156.8 87.0217 155.415 86.9823C155.435 77.6167 155.415 68.2313 155.415 58.8459V58.8459Z" fill="#34A853"/>
<path d="M100.614 68.6059C103.19 68.113 105.979 68.6651 108.106 70.2227C110.037 71.6029 111.383 73.7718 111.793 76.1378C112.32 78.8785 111.656 81.8755 109.901 84.0444C108.008 86.4696 104.906 87.7709 101.882 87.5737C99.1122 87.416 96.42 86.0161 94.7813 83.7289C92.928 81.2051 92.4793 77.7349 93.4937 74.7774C94.5082 71.6029 97.376 69.1777 100.614 68.6059V68.6059ZM101.2 72.3522C100.146 72.6282 99.1708 73.2394 98.4684 74.107C96.5761 76.3942 96.6932 80.1207 98.7806 82.2501C99.9706 83.4726 101.765 84.0444 103.424 83.7092C104.965 83.4331 106.311 82.3881 107.052 81.0079C108.34 78.6616 107.969 75.428 105.999 73.5943C104.731 72.4113 102.877 71.9184 101.2 72.3522Z" fill="#EA4335"/>
<path d="M121.292 68.6058C124.238 68.034 127.457 68.8621 129.661 70.9521C133.251 74.2055 133.641 80.2981 130.578 84.0444C128.725 86.4104 125.72 87.7118 122.755 87.5738C119.926 87.4949 117.137 86.0752 115.459 83.7289C113.567 81.1459 113.157 77.5968 114.23 74.5801C115.303 71.5042 118.112 69.1579 121.292 68.6058V68.6058ZM121.877 72.3521C120.824 72.6281 119.848 73.2393 119.146 74.0872C117.273 76.3349 117.351 80.0023 119.361 82.1515C120.551 83.4331 122.404 84.0641 124.121 83.7092C125.642 83.4134 127.008 82.3881 127.749 81.0079C129.017 78.6419 128.647 75.4082 126.657 73.5745C125.389 72.3915 123.535 71.9183 121.877 72.3521Z" fill="#FBBC05"/>
<path d="M138.833 69.7495C141.076 68.3299 144.061 67.9355 146.48 69.158C147.241 69.4932 147.865 70.065 148.47 70.6368C148.489 70.1044 148.47 69.5523 148.489 69.0003C149.797 69.02 151.104 69.0003 152.43 69.02V86.4105C152.411 89.0329 151.747 91.813 149.875 93.7256C147.826 95.8353 144.685 96.486 141.856 96.0522C138.833 95.5987 136.199 93.3706 135.028 90.5511C136.199 89.9793 137.428 89.5258 138.638 88.9934C139.32 90.6102 140.705 91.9904 142.442 92.3059C144.178 92.6214 146.187 92.1876 147.319 90.7285C148.528 89.23 148.528 87.1795 148.47 85.3458C147.573 86.233 146.539 87.0217 145.29 87.3175C142.578 88.0865 139.593 87.14 137.506 85.2866C135.399 83.4332 134.151 80.5742 134.268 77.735C134.326 74.5211 136.121 71.4255 138.833 69.7495V69.7495ZM142.871 72.2733C141.681 72.4705 140.569 73.1409 139.808 74.0676C137.974 76.2759 137.974 79.8053 139.828 81.9741C140.881 83.2558 142.578 83.9656 144.217 83.7881C145.758 83.6304 147.182 82.6445 147.943 81.284C149.231 78.9771 149.016 75.8421 147.28 73.831C146.207 72.5888 144.49 71.9776 142.871 72.2733V72.2733Z" fill="#4285F4"/>
<path d="M164.601 70.7551C166.942 68.5468 170.551 67.7975 173.555 68.9608C176.404 70.0453 178.218 72.7859 179.135 75.6055C174.901 77.38 170.687 79.1349 166.454 80.9094C167.039 82.0333 167.937 83.0586 169.146 83.4726C170.844 84.0839 172.872 83.867 174.297 82.7234C174.862 82.2896 175.311 81.7178 175.74 81.1657C176.813 81.8953 177.886 82.6051 178.959 83.3346C177.437 85.6415 174.882 87.2583 172.131 87.5147C169.088 87.8893 165.849 86.7063 163.879 84.3008C160.64 80.5151 160.953 74.1661 164.601 70.7551V70.7551ZM166.688 74.4027C166.025 75.3689 165.752 76.5519 165.771 77.7152C168.6 76.5322 171.429 75.3492 174.258 74.1464C173.789 73.0423 172.658 72.3719 171.507 72.1944C169.653 71.8592 167.722 72.8648 166.688 74.4027V74.4027Z" fill="#EA4335"/>
</svg>
